<?xml version="1.0" encoding="utf-8"?>
<svg xmlns="http://www.w3.org/2000/svg" xmlns:xlink="http://www.w3.org/1999/xlink" version= "1.1" width="2235px" height="2235px" viewBox="-577 0 2235 2235">
<g id="layer1">
<g style="fill:rgb(0,147,254); fill-opacity:1.0; stroke-linejoin: miter">
<path d="M-843.0354,-1368.723L-843.0354,-1368.723L-843.0354,-1368.722C-843.0354,-1366.3276,-844.9765,-1364.3866,-847.3709,-1364.3866C-849.7653,-1364.3866,-851.7064,-1366.3276,-851.7064,-1368.722L-851.7064,-1368.722L-851.7064,-1368.723C-851.7064,-1371.1174,-849.7653,-1373.0585,-847.3709,-1373.0585C-844.9765,-1373.0585,-843.0354,-1371.1174,-843.0354,-1368.723 Z"/>
</g>
<g style="fill:url(#grad0); fill-opacity:1.0; stroke-linejoin: miter">
<path d="M805.18085,567.18756C805.1206,567.18756,805.06006,567.20026,805.0032,567.22626C804.85114,567.2958,804.7536,567.4477,804.7536,567.61487L804.7536,748.59717C804.7536,748.91846,804.6357,749.2113,804.4399,749.43665C804.33,749.56305,804.30414,749.7419,804.3736,749.89417C804.40924,749.9724,804.46674,750.0363,804.53687,750.0799L804.5329,750.0809L949.76324,875.6514C949.7986,875.68207,949.8385,875.70636,949.88104,875.7237L949.8757,875.7247C950.10004,875.87134,950.27997,876.0907,950.37695,876.3636C950.61316,877.02893,950.2654,877.7601,949.60004,877.9964L558.25037,1016.9906C558.0328,1017.06793,557.91595,1017.30414,557.98663,1017.524C558.0155,1017.61395,558.0715,1017.6878,558.14276,1017.7394L558.1413,1017.74036C558.21173,1017.80414,558.2778,1017.875,558.33954,1017.953L558.33954,1017.954L804.84863,1329.0759C804.9312,1329.1803,805.0556,1329.238,805.1836,1329.238C805.2306,1329.238,805.27795,1329.2302,805.32404,1329.2144C805.33545,1329.2102,805.34656,1329.2058,805.35754,1329.2009L805.3565,1329.2019L1149.0345,1177.0222C1149.1892,1176.9537,1149.289,1176.8005,1149.289,1176.6316L1149.289,1176.6311L1149.2863,1176.5837L1110.7823,831.4336L1110.7823,831.4346C1110.7705,831.3271,1110.719,831.2281,1110.6371,831.1573L960.5332,701.37305C960.4644,701.31354,960.37836,701.2776,960.2877,701.2703L960.2822,701.2699C960.2708,701.269,960.2594,701.26855,960.24817,701.26855C960.17377,701.26855,960.1004,701.28796,960.0356,701.32513C959.96027,701.36835,959.87726,701.40533,959.7903,701.4334L959.79034,701.4344L807.4075,750.55695C807.27606,750.5993,807.1446,750.6191,807.01483,750.6191C806.47424,750.6191,805.9727,750.27344,805.7982,749.7323L805.7982,749.73224C805.5816,749.0603,805.95074,748.3398,806.62286,748.12305L806.62286,748.124L957.3962,699.51886C957.57263,699.462,957.6924,699.29767,957.6924,699.1122L957.6924,699.11176C957.6924,698.9876,957.63837,698.8697,957.5446,698.7885L805.4604,567.2916C805.3812,567.22314,805.2816,567.18756,805.18085,567.18756 Z"/>
</g>
<g style="fill:url(#grad1); fill-opacity:1.0; stroke-linejoin: miter">
<path d="M601.7586,640.0058C601.733,640.0058,601.7076,640.00977,601.68317,640.0175L428.22717,695.25824L428.22693,695.2592C428.16782,695.27374,428.1149,695.31085,428.08032,695.365L224.94873,1013.4108C224.89983,1013.48737,224.89656,1013.58453,224.9402,1013.6642C224.97282,1013.7238,225.02774,1013.7665,225.09131,1013.78424L225.08946,1013.7852C225.11217,1013.7908,225.13521,1013.7939,225.15799,1013.7939C225.16307,1013.7939,225.16817,1013.7937,225.17323,1013.7934L225.17503,1013.7944L559.0343,1013.79364C559.0634,1013.79364,559.09186,1013.7886,559.1187,1013.7789L559.11755,1013.77985L891.3467,895.78314C891.4459,895.7479,891.5121,895.65405,891.5121,895.54877L891.5121,895.54834C891.5121,895.4769,891.48145,895.40906,891.4279,895.36176L602.00006,640.1381L602.00006,640.1391C601.97723,640.118,601.957,640.09906,601.9359,640.07806C601.8893,640.0318,601.8263,640.0058,601.7606,640.0058 Z"/>
</g>
<g style="fill:url(#grad2); fill-opacity:1.0; stroke-linejoin: miter">
<path d="M602.8141,579.0515C602.7331,579.0515,602.6516,579.06903,602.5754,579.1049C602.3749,579.1992,602.24866,579.4029,602.2535,579.6245L603.51514,637.7657C603.5188,637.9336,603.5975,638.09106,603.7297,638.1947L603.7309,638.1957L893.2457,893.4953C893.53015,893.7461,893.66077,894.106,893.6288,894.45935C893.6146,894.6163,893.667,894.77185,893.77325,894.8882C893.87946,895.00446,894.0298,895.0707,894.18726,895.0707C894.2512,895.0707,894.3147,895.05975,894.375,895.0384L945.9953,876.7051C946.21906,876.6256,946.36847,876.41394,946.36847,876.1766L946.36847,876.17615C946.36847,876.0133,946.2976,875.85846,946.1744,875.7519L603.1809,579.1881C603.07697,579.0982,602.9463,579.0515,602.8141,579.0515 Z"/>
</g>
<g>
<g style="fill:rgb(0,0,0); fill-opacity:1.0; stroke-linejoin: miter">
<path d="M-13.918198,1304.7418L-9.988892,1365.3652L-44.604156,1365.3652L-13.918198,1304.7418 Z M986.9304,1350.2094Q990.1113,1350.2094,991.60815,1350.9578Q993.1051,1351.7063,993.1051,1354.1387Q993.1051,1354.7,992.91797,1355.4485Q992.91797,1356.1969,992.73083,1357.1324L989.1758,1373.7852Q988.24023,1378.2758,986.36914,1379.7727Q984.6852,1381.0824,980.3816,1381.0824L940.3402,1381.0824L946.88904,1350.2094 Z M818.53186,1333.9309Q823.58386,1333.9309,823.58386,1336.9246Q823.58386,1337.2988,823.2097,1339.1699L815.16394,1377.7145Q814.60266,1380.5211,813.1057,1381.6438Q811.60876,1382.7664,808.24097,1382.7664L771.19324,1382.7664Q767.0768,1382.7664,767.0768,1380.1469Q767.0768,1379.5856,767.26385,1379.0242Q767.26385,1378.4629,767.45105,1377.7145L775.4967,1339.1699Q776.0581,1335.989,777.36786,1334.8665Q778.49054,1333.9309,781.48425,1333.9309 Z M-184.18784,1279.2949L-189.4269,1304.1804L-121.50615,1304.1804Q-113.46045,1304.1804,-113.46045,1312.0391Q-113.46045,1314.0973,-114.02178,1316.3425L-125.24835,1369.1074Q-127.86788,1381.2695,-137.78467,1381.2695L-177.639,1381.2695L-163.23157,1313.5359L-191.29799,1313.5359L-210.94449,1405.968L-137.78467,1405.968Q-120.94483,1405.968,-111.02802,1397.7352Q-101.11122,1389.5023,-97.743256,1373.598L-84.458466,1311.6648Q-83.335815,1306.4258,-83.335815,1301.748Q-83.335815,1279.2949,-111.02802,1279.2949 Z M-26.080292,1279.2949L-91.942856,1405.968L-64.43776,1405.968L-54.70807,1386.3215L-9.053345,1386.3215L-7.743576,1405.968L20.88417,1405.968L11.154465,1279.2949 Z M61.112686,1279.2949L55.873642,1303.9933L123.045944,1303.9933Q126.22679,1303.9933,127.536575,1304.7418Q128.84633,1305.4902,128.84633,1307.7355Q128.84633,1308.2969,128.65923,1309.0453Q128.65923,1309.7937,128.47212,1310.7292L123.98149,1331.3113Q123.045944,1335.2406,121.54906,1336.5504Q120.23927,1337.8601,116.12288,1337.8601L77.20412,1337.8601L82.44319,1313.3488L54.00255,1313.3488L34.356033,1405.968L62.796677,1405.968L72.713486,1358.8164L113.690475,1358.8164Q118.92952,1358.8164,118.92952,1361.8102Q118.92952,1362.3715,118.74242,1363.1199Q118.74242,1363.6813,118.55531,1364.6168L109.94829,1405.968L138.38893,1405.968L147.5573,1361.9973Q147.9315,1360.8746,147.9315,1359.752Q147.9315,1358.8164,147.9315,1357.8809Q147.9315,1351.8933,143.81511,1349.4609Q139.69868,1347.2156,133.71117,1346.8414Q140.26003,1346.093,145.6862,1341.9766Q151.11238,1338.0472,153.17058,1328.3176L158.97096,1300.8125Q159.3452,1298.7543,159.71944,1296.8832Q159.90651,1295.0121,159.90651,1293.3281Q159.90651,1286.2179,155.60301,1282.6628Q151.29948,1279.2949,141.56978,1279.2949 Z M179.55302,1279.2949L174.31398,1304.1804L204.99995,1304.1804L183.48232,1405.968L211.92299,1405.968L233.44057,1304.1804L264.3136,1304.1804L269.55267,1279.2949 Z M357.11993,1279.2949Q345.1449,1279.2949,339.15747,1284.7211Q333.35706,1290.1472,330.92462,1301.3738L313.52344,1383.889Q312.9621,1386.3215,312.77502,1388.3798Q312.5879,1390.2509,312.5879,1392.122Q312.5879,1399.232,316.70428,1402.6001Q320.82074,1405.968,330.36328,1405.968L402.02625,1405.968L407.4524,1380.334L349.8227,1380.334Q346.26758,1380.334,344.95782,1379.3984Q343.64807,1378.4629,343.64807,1376.4047Q343.64807,1375.6562,343.83514,1374.9078Q343.83514,1374.3464,344.02228,1373.4109L357.30707,1311.6648Q358.24255,1307.3613,359.92657,1305.8644Q361.42346,1304.5547,365.91406,1304.5547L423.16962,1304.5547L428.40863,1279.2949 Z M442.0677,1311.2906L437.76416,1331.8727L501.9427,1331.8727Q504.5622,1331.8727,505.4978,1332.8082Q506.4333,1333.5566,506.4333,1335.0535Q506.4333,1336.3633,506.24622,1337.1117L496.3294,1383.5149L452.54578,1383.5149Q448.99072,1383.5149,448.99072,1381.0824Q448.99072,1380.5211,449.1778,1379.9597Q449.1778,1379.3984,449.36487,1378.4629L451.4231,1368.5461Q451.98444,1365.5524,453.10706,1364.6168Q454.22974,1363.6813,456.8493,1363.6813L491.2774,1363.6813L494.6454,1347.5898L446.5583,1347.5898Q442.0677,1347.5898,438.88678,1348.5254Q435.70593,1349.2738,433.46063,1351.332Q431.21527,1353.3903,429.71838,1356.9453Q428.22156,1360.5004,427.09888,1365.7395L422.42114,1388.1926Q421.4856,1392.4961,421.4856,1395.1156Q421.4856,1400.5419,424.66644,1403.3485Q427.8473,1405.968,434.95746,1405.968L517.4728,1405.968L533.5642,1329.8145Q534.4997,1325.1367,534.4997,1322.5172Q534.4997,1316.7168,531.1318,1313.9102Q527.7638,1311.2906,519.53094,1311.2906 Z M556.5786,1311.2906L536.5579,1405.968L562.75323,1405.968L576.7864,1339.1699Q577.53485,1335.989,579.03174,1334.8665Q580.3415,1333.9309,583.1482,1333.9309L620.9443,1333.9309L625.8091,1311.2906L598.304,1311.2906Q592.12946,1311.2906,587.6388,1313.723Q583.33527,1316.1554,579.7802,1321.5817L582.0255,1311.2906 Z M773.0643,1311.2906Q762.9604,1311.2906,758.0956,1315.7812Q753.4178,1320.2719,751.3597,1329.8145L739.1975,1387.4442Q738.26196,1392.122,738.26196,1394.7415Q738.26196,1400.5419,741.8171,1403.3485Q745.18506,1405.968,753.0436,1405.968L817.4093,1405.968Q827.7003,1405.968,832.5652,1401.4774Q837.2428,1396.9868,839.301,1387.4442L851.46326,1329.8145Q852.3988,1325.1367,852.3988,1322.5172Q852.3988,1316.7168,849.03076,1313.9102Q845.6627,1311.2906,837.43005,1311.2906 Z M933.4171,1279.2949L928.3651,1303.8063L996.2859,1303.8063Q999.4668,1303.8063,1000.7765,1304.7418Q1002.0863,1305.4902,1002.0863,1307.7355Q1002.0863,1309.2324,1001.525,1311.1035L998.3441,1326.4465Q997.5957,1329.6273,995.91174,1330.9371Q994.4148,1332.2468,990.29834,1332.2468L950.6312,1332.2468L954.9347,1311.8519L926.49414,1311.8519L906.6605,1405.968L989.1758,1405.968Q1001.15076,1405.968,1007.1383,1400.5419Q1012.9387,1395.3027,1015.18396,1384.4504L1021.54565,1354.3258Q1021.7328,1353.3903,1021.9199,1352.4547Q1021.9199,1351.5192,1021.9199,1350.5836Q1021.9199,1345.5316,1018.36475,1343.2864Q1014.99695,1341.041,1009.5707,1340.4797Q1016.1195,1339.7312,1020.4231,1335.989Q1024.7266,1332.434,1026.4105,1324.5753L1031.4625,1300.8125Q1031.8367,1298.7543,1032.2109,1296.8832Q1032.3981,1295.0121,1032.3981,1293.3281Q1032.3981,1286.2179,1028.0945,1282.6628Q1023.791,1279.2949,1014.0613,1279.2949 Z M1053.3544,1311.2906L1049.0508,1331.8727L1113.2292,1331.8727Q1115.8489,1331.8727,1116.7844,1332.8082Q1117.72,1333.5566,1117.72,1335.0535Q1117.72,1336.3633,1117.5328,1337.1117L1107.6161,1383.5149L1063.8324,1383.5149Q1060.2773,1383.5149,1060.2773,1381.0824Q1060.2773,1380.5211,1060.4645,1379.9597Q1060.4645,1379.3984,1060.6516,1378.4629L1062.7097,1368.5461Q1063.2711,1365.5524,1064.3938,1364.6168Q1065.5165,1363.6813,1068.136,1363.6813L1102.5641,1363.6813L1105.932,1347.5898L1057.8448,1347.5898Q1053.3544,1347.5898,1050.1735,1348.5254Q1046.9927,1349.2738,1044.7473,1351.332Q1042.502,1353.3903,1041.0051,1356.9453Q1039.5083,1360.5004,1038.3856,1365.7395L1033.7079,1388.1926Q1032.7722,1392.4961,1032.7722,1395.1156Q1032.7722,1400.5419,1035.9531,1403.3485Q1039.1339,1405.968,1046.2441,1405.968L1128.7594,1405.968L1144.8508,1329.8145Q1145.7864,1325.1367,1145.7864,1322.5172Q1145.7864,1316.7168,1142.4185,1313.9102Q1139.0504,1311.2906,1130.8176,1311.2906 Z M657.2435,1311.2906Q647.13965,1311.2906,642.2748,1315.7812Q637.59705,1320.2719,635.5389,1329.8145L623.3768,1387.4442Q622.4412,1392.122,622.4412,1394.7415Q622.4412,1400.5419,625.9963,1403.3485Q629.36426,1405.968,637.22284,1405.968L682.12915,1405.968L686.61975,1384.6375L655.18536,1384.6375Q650.88184,1384.6375,650.88184,1381.6438Q650.88184,1380.5211,651.0689,1379.5856L659.67596,1339.1699Q660.23737,1336.1761,661.5471,1335.0535Q662.66974,1333.9309,665.8506,1333.9309L706.64044,1333.9309L688.86505,1417.5688Q688.1166,1420.7496,686.8068,1421.8723Q685.68414,1422.995,682.50336,1422.995L619.2603,1422.995L614.39545,1445.6353L691.1104,1445.6353Q701.40137,1445.6353,706.26624,1441.1445Q710.944,1436.6539,713.0022,1427.1113L737.7007,1311.2906 Z M1166.1814,1311.2906L1150.09,1387.4442Q1149.1544,1392.122,1149.1544,1394.7415Q1149.1544,1400.5419,1152.7095,1403.3485Q1156.0774,1405.968,1163.936,1405.968L1217.8236,1405.968L1215.2041,1417.5688Q1214.4556,1420.7496,1213.1459,1421.8723Q1212.0232,1422.995,1208.8423,1422.995L1145.9735,1422.995L1141.1086,1445.6353L1217.4493,1445.6353Q1227.7404,1445.6353,1232.6052,1441.1445Q1237.4701,1436.6539,1239.5282,1427.1113L1264.2267,1311.2906L1237.8442,1311.2906L1222.3142,1384.6375L1182.0857,1384.6375Q1177.5951,1384.6375,1177.5951,1381.6438Q1177.5951,1381.0824,1177.7821,1380.5211Q1177.7821,1379.9597,1177.9692,1379.2113L1192.3767,1311.2906 Z"/>
</g>
</g>
</g>
<g id="layer2" opacity="0.0">
<g style="fill:rgb(0,147,254); fill-opacity:1.0; stroke-linejoin: miter">
<path d="M-843.0354,-1368.723L-843.0354,-1368.723L-843.0354,-1368.722C-843.0354,-1366.3276,-844.9765,-1364.3866,-847.3709,-1364.3866C-849.7653,-1364.3866,-851.7064,-1366.3276,-851.7064,-1368.722L-851.7064,-1368.722L-851.7064,-1368.723C-851.7064,-1371.1174,-849.7653,-1373.0585,-847.3709,-1373.0585C-844.9765,-1373.0585,-843.0354,-1371.1174,-843.0354,-1368.723 Z"/>
</g>
<g style="fill:url(#grad0); fill-opacity:1.0; stroke-linejoin: miter">
<path d="M805.18085,567.18756C805.1206,567.18756,805.06006,567.20026,805.0032,567.22626C804.85114,567.2958,804.7536,567.4477,804.7536,567.61487L804.7536,748.59717C804.7536,748.91846,804.6357,749.2113,804.4399,749.43665C804.33,749.56305,804.30414,749.7419,804.3736,749.89417C804.40924,749.9724,804.46674,750.0363,804.53687,750.0799L804.5329,750.0809L949.76324,875.6514C949.7986,875.68207,949.8385,875.70636,949.88104,875.7237L949.8757,875.7247C950.10004,875.87134,950.27997,876.0907,950.37695,876.3636C950.61316,877.02893,950.2654,877.7601,949.60004,877.9964L558.25037,1016.9906C558.0328,1017.06793,557.91595,1017.30414,557.98663,1017.524C558.0155,1017.61395,558.0715,1017.6878,558.14276,1017.7394L558.1413,1017.74036C558.21173,1017.80414,558.2778,1017.875,558.33954,1017.953L558.33954,1017.954L804.84863,1329.0759C804.9312,1329.1803,805.0556,1329.238,805.1836,1329.238C805.2306,1329.238,805.27795,1329.2302,805.32404,1329.2144C805.33545,1329.2102,805.34656,1329.2058,805.35754,1329.2009L805.3565,1329.2019L1149.0345,1177.0222C1149.1892,1176.9537,1149.289,1176.8005,1149.289,1176.6316L1149.289,1176.6311L1149.2863,1176.5837L1110.7823,831.4336L1110.7823,831.4346C1110.7705,831.3271,1110.719,831.2281,1110.6371,831.1573L960.5332,701.37305C960.4644,701.31354,960.37836,701.2776,960.2877,701.2703L960.2822,701.2699C960.2708,701.269,960.2594,701.26855,960.24817,701.26855C960.17377,701.26855,960.1004,701.28796,960.0356,701.32513C959.96027,701.36835,959.87726,701.40533,959.7903,701.4334L959.79034,701.4344L807.4075,750.55695C807.27606,750.5993,807.1446,750.6191,807.01483,750.6191C806.47424,750.6191,805.9727,750.27344,805.7982,749.7323L805.7982,749.73224C805.5816,749.0603,805.95074,748.3398,806.62286,748.12305L806.62286,748.124L957.3962,699.51886C957.57263,699.462,957.6924,699.29767,957.6924,699.1122L957.6924,699.11176C957.6924,698.9876,957.63837,698.8697,957.5446,698.7885L805.4604,567.2916C805.3812,567.22314,805.2816,567.18756,805.18085,567.18756 Z"/>
</g>
<g style="fill:url(#grad1); fill-opacity:1.0; stroke-linejoin: miter">
<path d="M601.7586,640.0058C601.733,640.0058,601.7076,640.00977,601.68317,640.0175L428.22717,695.25824L428.22693,695.2592C428.16782,695.27374,428.1149,695.31085,428.08032,695.365L224.94873,1013.4108C224.89983,1013.48737,224.89656,1013.58453,224.9402,1013.6642C224.97282,1013.7238,225.02774,1013.7665,225.09131,1013.78424L225.08946,1013.7852C225.11217,1013.7908,225.13521,1013.7939,225.15799,1013.7939C225.16307,1013.7939,225.16817,1013.7937,225.17323,1013.7934L225.17503,1013.7944L559.0343,1013.79364C559.0634,1013.79364,559.09186,1013.7886,559.1187,1013.7789L559.11755,1013.77985L891.3467,895.78314C891.4459,895.7479,891.5121,895.65405,891.5121,895.54877L891.5121,895.54834C891.5121,895.4769,891.48145,895.40906,891.4279,895.36176L602.00006,640.1381L602.00006,640.1391C601.97723,640.118,601.957,640.09906,601.9359,640.07806C601.8893,640.0318,601.8263,640.0058,601.7606,640.0058 Z"/>
</g>
<g style="fill:url(#grad2); fill-opacity:1.0; stroke-linejoin: miter">
<path d="M602.8141,579.0515C602.7331,579.0515,602.6516,579.06903,602.5754,579.1049C602.3749,579.1992,602.24866,579.4029,602.2535,579.6245L603.51514,637.7657C603.5188,637.9336,603.5975,638.09106,603.7297,638.1947L603.7309,638.1957L893.2457,893.4953C893.53015,893.7461,893.66077,894.106,893.6288,894.45935C893.6146,894.6163,893.667,894.77185,893.77325,894.8882C893.87946,895.00446,894.0298,895.0707,894.18726,895.0707C894.2512,895.0707,894.3147,895.05975,894.375,895.0384L945.9953,876.7051C946.21906,876.6256,946.36847,876.41394,946.36847,876.1766L946.36847,876.17615C946.36847,876.0133,946.2976,875.85846,946.1744,875.7519L603.1809,579.1881C603.07697,579.0982,602.9463,579.0515,602.8141,579.0515 Z"/>
</g>
<g>
<g style="fill:rgb(254,254,254); fill-opacity:1.0; stroke-linejoin: miter">
<path d="M-13.918152,1304.7418L-9.988892,1365.3654L-44.604187,1365.3654L-13.918152,1304.7418 Z M986.9304,1350.2094Q990.1113,1350.2094,991.60815,1350.9579Q993.1051,1351.7062,993.1051,1354.1385Q993.1051,1354.7001,992.91797,1355.4484Q992.91797,1356.1969,992.73096,1357.1324L989.1759,1373.7853Q988.24023,1378.2758,986.36914,1379.7728Q984.6852,1381.0826,980.3816,1381.0826L940.3402,1381.0826L946.88904,1350.2094 Z M818.53186,1333.931Q823.58386,1333.931,823.58386,1336.9247Q823.58386,1337.299,823.2097,1339.17L815.16394,1377.7145Q814.60254,1380.5211,813.10583,1381.6439Q811.60876,1382.7665,808.24097,1382.7665L771.19324,1382.7665Q767.0769,1382.7665,767.0769,1380.1469Q767.0769,1379.5856,767.2638,1379.0243Q767.2638,1378.463,767.45105,1377.7145L775.4967,1339.17Q776.0582,1335.9891,777.3679,1334.8663Q778.4905,1333.931,781.48413,1333.931 Z M-184.18784,1279.2948L-189.42691,1304.1805L-121.506134,1304.1805Q-113.46042,1304.1805,-113.46042,1312.0392Q-113.46042,1314.0973,-114.02179,1316.3424L-125.24832,1369.1075Q-127.86789,1381.2697,-137.78467,1381.2697L-177.639,1381.2697L-163.23154,1313.536L-191.29797,1313.536L-210.94446,1405.9679L-137.78467,1405.9679Q-120.944824,1405.9679,-111.028015,1397.7352Q-101.111206,1389.5023,-97.743256,1373.598L-84.458466,1311.6647Q-83.335815,1306.4257,-83.335815,1301.7479Q-83.335815,1279.2948,-111.028015,1279.2948 Z M-26.080261,1279.2948L-91.94284,1405.9679L-64.437744,1405.9679L-54.70807,1386.3217L-9.053345,1386.3217L-7.7435913,1405.9679L20.884155,1405.9679L11.154419,1279.2948 Z M61.11267,1279.2948L55.873596,1303.9933L123.04596,1303.9933Q126.22681,1303.9933,127.53656,1304.7418Q128.84631,1305.4904,128.84631,1307.7355Q128.84631,1308.297,128.65918,1309.0453Q128.65918,1309.7938,128.4721,1310.7294L123.98151,1331.3114Q123.04596,1335.2406,121.54907,1336.5504Q120.23932,1337.8602,116.122925,1337.8602L77.2041,1337.8602L82.44318,1313.349L54.002563,1313.349L34.35608,1405.9679L62.79669,1405.9679L72.71344,1358.8163L113.69049,1358.8163Q118.929504,1358.8163,118.929504,1361.8102Q118.929504,1362.3715,118.74243,1363.12Q118.74243,1363.6813,118.5553,1364.6168L109.9483,1405.9679L138.38892,1405.9679L147.55725,1361.9974Q147.93152,1360.8746,147.93152,1359.7521Q147.93152,1358.8163,147.93152,1357.881Q147.93152,1351.8934,143.81512,1349.4608Q139.69873,1347.2157,133.71118,1346.8414Q140.26001,1346.0931,145.68622,1341.9767Q151.11237,1338.0475,153.1706,1328.3175L158.97095,1300.8126Q159.34515,1298.7543,159.71942,1296.8834Q159.9065,1295.0123,159.9065,1293.3282Q159.9065,1286.2181,155.60303,1282.663Q151.2995,1279.2948,141.56982,1279.2948 Z M179.55304,1279.2948L174.31396,1304.1805L204.99994,1304.1805L183.4823,1405.9679L211.92303,1405.9679L233.44061,1304.1805L264.31366,1304.1805L269.55267,1279.2948 Z M357.12,1279.2948Q345.14496,1279.2948,339.15747,1284.7211Q333.35706,1290.1473,330.92462,1301.3739L313.52344,1383.8893Q312.9621,1386.3217,312.77502,1388.3798Q312.5879,1390.2509,312.5879,1392.122Q312.5879,1399.2323,316.70428,1402.6Q320.82068,1405.9679,330.36328,1405.9679L402.02625,1405.9679L407.45233,1380.3341L349.8227,1380.3341Q346.26758,1380.3341,344.95782,1379.3983Q343.64807,1378.463,343.64807,1376.4049Q343.64807,1375.6564,343.83514,1374.9078Q343.83514,1374.3466,344.02228,1373.411L357.30707,1311.6647Q358.24255,1307.3615,359.92657,1305.8644Q361.42346,1304.5546,365.91412,1304.5546L423.16962,1304.5546L428.40863,1279.2948 Z M442.0677,1311.2906L437.76416,1331.8727L501.94275,1331.8727Q504.56226,1331.8727,505.4978,1332.8082Q506.43323,1333.5565,506.43323,1335.0536Q506.43323,1336.3634,506.24634,1337.1117L496.32935,1383.5148L452.54578,1383.5148Q448.99072,1383.5148,448.99072,1381.0826Q448.99072,1380.5211,449.17773,1379.9598Q449.17773,1379.3983,449.36487,1378.463L451.4231,1368.5463Q451.9845,1365.5524,453.10706,1364.6168Q454.22974,1363.6813,456.84924,1363.6813L491.27747,1363.6813L494.64526,1347.5897L446.5583,1347.5897Q442.0677,1347.5897,438.88678,1348.5255Q435.70587,1349.274,433.46063,1351.3322Q431.21527,1353.3905,429.71838,1356.9452Q428.2215,1360.5006,427.09888,1365.7396L422.42114,1388.1925Q421.4856,1392.4962,421.4856,1395.1158Q421.4856,1400.5421,424.66644,1403.3485Q427.84735,1405.9679,434.95752,1405.9679L517.4728,1405.9679L533.5641,1329.8146Q534.49963,1325.1368,534.49963,1322.5172Q534.49963,1316.7169,531.13184,1313.9103Q527.7638,1311.2906,519.531,1311.2906 Z M556.5786,1311.2906L536.55786,1405.9679L562.7532,1405.9679L576.7864,1339.17Q577.5349,1335.9891,579.03174,1334.8663Q580.34143,1333.931,583.1482,1333.931L620.94434,1333.931L625.8091,1311.2906L598.30396,1311.2906Q592.1295,1311.2906,587.6387,1313.723Q583.3353,1316.1556,579.7803,1321.5819L582.0255,1311.2906 Z M773.06433,1311.2906Q762.96045,1311.2906,758.0956,1315.7811Q753.41785,1320.2719,751.3596,1329.8146L739.1975,1387.4442Q738.2621,1392.122,738.2621,1394.7413Q738.2621,1400.5421,741.81714,1403.3485Q745.18506,1405.9679,753.0436,1405.9679L817.4092,1405.9679Q827.7003,1405.9679,832.5652,1401.4774Q837.2428,1396.9869,839.301,1387.4442L851.46313,1329.8146Q852.3988,1325.1368,852.3988,1322.5172Q852.3988,1316.7169,849.03076,1313.9103Q845.66284,1311.2906,837.43005,1311.2906 Z M933.417,1279.2948L928.36523,1303.8063L996.2859,1303.8063Q999.4667,1303.8063,1000.7766,1304.7418Q1002.0863,1305.4904,1002.0863,1307.7355Q1002.0863,1309.2325,1001.525,1311.1034L998.3441,1326.4464Q997.5957,1329.6273,995.9116,1330.9371Q994.4149,1332.2467,990.29834,1332.2467L950.6312,1332.2467L954.9348,1311.8519L926.494,1311.8519L906.6605,1405.9679L989.1759,1405.9679Q1001.15063,1405.9679,1007.1382,1400.5421Q1012.9387,1395.3026,1015.18396,1384.4506L1021.54565,1354.3258Q1021.7328,1353.3905,1021.9199,1352.4547Q1021.9199,1351.5192,1021.9199,1350.5836Q1021.9199,1345.5316,1018.36487,1343.2865Q1014.99695,1341.0411,1009.5707,1340.4796Q1016.1195,1339.7313,1020.423,1335.9891Q1024.7264,1332.434,1026.4105,1324.5753L1031.4625,1300.8126Q1031.8367,1298.7543,1032.2109,1296.8834Q1032.3981,1295.0123,1032.3981,1293.3282Q1032.3981,1286.2181,1028.0945,1282.663Q1023.791,1279.2948,1014.0614,1279.2948 Z M1053.3542,1311.2906L1049.0508,1331.8727L1113.2294,1331.8727Q1115.8489,1331.8727,1116.7844,1332.8082Q1117.72,1333.5565,1117.72,1335.0536Q1117.72,1336.3634,1117.5328,1337.1117L1107.6161,1383.5148L1063.8325,1383.5148Q1060.2773,1383.5148,1060.2773,1381.0826Q1060.2773,1380.5211,1060.4646,1379.9598Q1060.4646,1379.3983,1060.6516,1378.463L1062.7097,1368.5463Q1063.2711,1365.5524,1064.3938,1364.6168Q1065.5164,1363.6813,1068.136,1363.6813L1102.5641,1363.6813L1105.932,1347.5897L1057.845,1347.5897Q1053.3542,1347.5897,1050.1735,1348.5255Q1046.9926,1349.274,1044.7473,1351.3322Q1042.502,1353.3905,1041.005,1356.9452Q1039.5083,1360.5006,1038.3855,1365.7396L1033.7078,1388.1925Q1032.7722,1392.4962,1032.7722,1395.1158Q1032.7722,1400.5421,1035.9532,1403.3485Q1039.1339,1405.9679,1046.2441,1405.9679L1128.7594,1405.9679L1144.8508,1329.8146Q1145.7865,1325.1368,1145.7865,1322.5172Q1145.7865,1316.7169,1142.4185,1313.9103Q1139.0504,1311.2906,1130.8176,1311.2906 Z M657.2435,1311.2906Q647.13965,1311.2906,642.2749,1315.7811Q637.59705,1320.2719,635.5388,1329.8146L623.37683,1387.4442Q622.44116,1392.122,622.44116,1394.7413Q622.44116,1400.5421,625.99634,1403.3485Q629.3644,1405.9679,637.2228,1405.9679L682.12915,1405.9679L686.61975,1384.6378L655.1854,1384.6378Q650.88184,1384.6378,650.88184,1381.6439Q650.88184,1380.5211,651.069,1379.5856L659.6759,1339.17Q660.2373,1336.1764,661.5471,1335.0536Q662.6697,1333.931,665.8506,1333.931L706.6404,1333.931L688.8651,1417.569Q688.1167,1420.7496,686.8069,1421.8722Q685.6842,1422.995,682.5033,1422.995L619.2604,1422.995L614.3955,1445.6354L691.1105,1445.6354Q701.40137,1445.6354,706.26624,1441.1447Q710.944,1436.6539,713.0023,1427.1115L737.7007,1311.2906 Z M1166.1814,1311.2906L1150.09,1387.4442Q1149.1543,1392.122,1149.1543,1394.7413Q1149.1543,1400.5421,1152.7095,1403.3485Q1156.0774,1405.9679,1163.936,1405.9679L1217.8236,1405.9679L1215.2041,1417.569Q1214.4557,1420.7496,1213.1459,1421.8722Q1212.0232,1422.995,1208.8423,1422.995L1145.9735,1422.995L1141.1086,1445.6354L1217.4493,1445.6354Q1227.7405,1445.6354,1232.6052,1441.1447Q1237.4701,1436.6539,1239.5282,1427.1115L1264.2267,1311.2906L1237.8442,1311.2906L1222.3142,1384.6378L1182.0857,1384.6378Q1177.5951,1384.6378,1177.5951,1381.6439Q1177.5951,1381.0826,1177.7821,1380.5211Q1177.7821,1379.9598,1177.9692,1379.2115L1192.3766,1311.2906 Z"/>
</g>
</g>
</g>
<defs>
<linearGradient id="grad2" gradientUnits="userSpaceOnUse" x1="895.84033" y1="910.6155" x2="753.2297" y2="426.79364" >
<stop offset="0.0%" style="stop-color:rgb(255,193,7); stop-opacity:1.0" />
<stop offset="19.456394%" style="stop-color:rgb(35,20,52); stop-opacity:1.0" />
<stop offset="43.14248%" style="stop-color:rgb(0,172,254); stop-opacity:1.0" />
<stop offset="67.51198%" style="stop-color:rgb(125,212,253); stop-opacity:0.0" />
<stop offset="100.0%" style="stop-color:rgb(254,254,254); stop-opacity:0.0" />
</linearGradient>
<radialGradient id="grad1" gradientUnits="userSpaceOnUse" cx="921.281" cy="928.8755" r="515.2483" >
<stop offset="0.0%" style="stop-color:rgb(255,193,7); stop-opacity:1.0" />
<stop offset="60.400154%" style="stop-color:rgb(0,172,254); stop-opacity:1.0" />
<stop offset="100.0%" style="stop-color:rgb(254,254,254); stop-opacity:0.0" />
</radialGradient>
<linearGradient id="grad0" gradientUnits="userSpaceOnUse" x1="949.3301" y1="623.3973" x2="850.7324" y2="1162.3259" >
<stop offset="0.0%" style="stop-color:rgb(35,20,52); stop-opacity:1.0" />
<stop offset="44.480755%" style="stop-color:rgb(0,172,254); stop-opacity:1.0" />
<stop offset="100.0%" style="stop-color:rgb(254,254,254); stop-opacity:0.0" />
</linearGradient>
</defs>
</svg>